# xmcd
#
# Track frame offsets:
#	150
#	24247
#	48242
#	68035
#	88252
#	107295
#	119197
#	139210
#	167802
#	184072
#	208417
#	230765
#
# Disc length: 3351 seconds
#
# Revision: 1
# Processed by: cddbd v1.5.1PL0 Copyright (c) Steve Scherf et al.
# Submitted via: CDex 1.50Beta5
#
DISCID=ae0d150c
DTITLE=こだま和文 - DREAD BEAT in TOKYO
DYEAR=1900
DGENRE=エイジ
TTITLE0=熱風の街 Part I
TTITLE1=熱風の街 Part II (Dread Beat Version)
TTITLE2=漂流者たちのテーマ
TTITLE3=IN THE BIGINING 〜 MIDNIGHT STREET
TTITLE4=THE DEAD ANGLE Part I
TTITLE5=THE DEAD ANGLE Part II
TTITLE6=影のテーマ
TTITLE7=暗闇からの視線 〜 FIRE FIRE
TTITLE8=熱風の街 Part III (Sunrise Version)
TTITLE9=熱風の街 Part IV (Windy Version)
TTITLE10=WHAT A WONDERFUL WORLD
TTITLE11=ETERNAL RIDDIM (WITH ROOT RADICS BAND)
EXTD=
EXTT0=
EXTT1=
EXTT2=
EXTT3=
EXTT4=
EXTT5=
EXTT6=
EXTT7=
EXTT8=
EXTT9=
EXTT10=
EXTT11=
PLAYORDER=
